<svg width="40" height="40" viewBox="0 0 40 40" fill="none" xmlns="http://www.w3.org/2000/svg">
<g id="change-2 1">
<path id="Vector" d="M32.8165 20.8672C32.5938 20.8672 32.3712 20.7539 32.2188 20.6055L27.9376 15.6172C27.7501 15.3945 27.7149 15.0977 27.8243 14.8359C27.9376 14.5742 28.1954 14.3906 28.4962 14.3906H32.4063C31.4024 11.7461 29.6524 9.51172 27.2657 7.94922C24.2501 5.9375 20.6759 5.23047 17.1368 5.9375C12.1095 6.94141 8.05088 10.7773 6.74619 15.7305C6.59776 16.3281 5.96494 16.6992 5.36729 16.5117C4.76963 16.3633 4.39854 15.7305 4.58604 15.1328C6.07822 9.39844 10.8478 4.92969 16.6915 3.73828C20.8243 2.91797 24.9962 3.73828 28.4962 6.08594C31.5157 8.09375 33.711 11 34.754 14.3867H36.7657C37.0626 14.3867 37.3243 14.5352 37.4376 14.7969C37.5509 15.0586 37.5118 15.3555 37.3634 15.5781L33.4142 20.6055C33.2657 20.7539 33.0392 20.8672 32.8165 20.8672ZM2.65244 24.4805L6.60166 19.5273C6.7501 19.3398 6.9376 19.2656 7.16026 19.2305C7.38291 19.2305 7.60557 19.3047 7.75791 19.4922L12.0392 24.4805C12.2267 24.7031 12.2618 25 12.1524 25.2617C12.0392 25.5234 11.7813 25.707 11.4806 25.707H7.60947C9.95713 31.7773 16.4337 35.4258 23.0274 34.0469C28.0157 33.0039 31.9649 29.2812 33.3048 24.3633C33.4532 23.7656 34.086 23.4336 34.6837 23.582C35.2813 23.7305 35.6134 24.3633 35.4649 24.9609C33.9024 30.6953 29.3204 35.0156 23.4728 36.2422C22.3946 36.4648 21.3126 36.5781 20.2345 36.5781C13.4962 36.5781 7.35166 32.2227 5.22666 25.7031H3.25401C2.95713 25.7031 2.69541 25.5547 2.58213 25.293C2.46885 25.0391 2.50401 24.7031 2.65244 24.4805Z" fill="#D2D2D2"/>
</g>
</svg>
