<svg width="16" height="16" viewBox="0 0 16 16" fill="none" xmlns="http://www.w3.org/2000/svg">
<g clip-path="url(#clip0_103_77)">
<mask id="mask0_103_77" style="mask-type:luminance" maskUnits="userSpaceOnUse" x="0" y="0" width="16" height="16">
<path d="M16 0H0V16H16V0Z" fill="white"/>
</mask>
<g mask="url(#mask0_103_77)">
<path d="M15.3848 0.221619C15.2361 0.123292 15.0699 0.0557761 14.8956 0.0229293C14.7213 -0.00991762 14.5423 -0.00745202 14.369 0.0301852C14.1956 0.0678223 14.0312 0.139894 13.8852 0.242282C13.7392 0.34467 13.6144 0.475369 13.518 0.626912L5.95456 12.5065L2.26598 9.03124C2.13584 8.90862 1.98328 8.81333 1.817 8.7508C1.65072 8.68826 1.47398 8.65972 1.29687 8.66678C0.939187 8.68106 0.601717 8.83953 0.3587 9.10734C0.115684 9.37516 -0.0129722 9.73037 0.0010348 10.0948C0.0150418 10.4593 0.170565 10.8032 0.43339 11.0508L5.2765 15.6136C5.2765 15.6136 5.41553 15.7355 5.47987 15.7782C5.62857 15.8766 5.79484 15.9441 5.96918 15.977C6.14352 16.0099 6.32251 16.0075 6.49592 15.9698C6.66933 15.9322 6.83376 15.8601 6.97981 15.7577C7.12586 15.6552 7.25067 15.5245 7.34711 15.3729L15.7825 2.12384C15.879 1.97234 15.9453 1.80295 15.9775 1.62534C16.0097 1.44774 16.0073 1.26541 15.9704 1.08876C15.9334 0.912116 15.8627 0.744614 15.7622 0.595827C15.6618 0.44704 15.5335 0.319882 15.3848 0.221619Z" fill="#24FF00"/>
</g>
</g>
<defs>
<clipPath id="clip0_103_77">
<rect width="16" height="16" fill="white"/>
</clipPath>
</defs>
</svg>
