<svg width="39" height="40" viewBox="0 0 39 40" fill="none" xmlns="http://www.w3.org/2000/svg">
<g id="Copy-Icon-03ndfdkgff 1" clip-path="url(#clip0_6_76)">
<path id="Path 25" d="M14.6949 10.8048H34.2256C35.4915 10.8064 36.7051 11.312 37.6001 12.2107C38.4952 13.1094 38.9986 14.3279 39 15.5988V35.2055C38.9986 36.4764 38.4952 37.6949 37.6001 38.5936C36.7051 39.4923 35.4915 39.9979 34.2256 39.9995H14.6949C13.429 39.9979 12.2155 39.4922 11.3205 38.5935C10.4254 37.6948 9.92204 36.4764 9.92065 35.2055V15.5988C9.92204 14.3279 10.4254 13.1095 11.3205 12.2107C12.2155 11.312 13.429 10.8064 14.6949 10.8048ZM34.2256 37.5527C34.8452 37.5519 35.4392 37.3044 35.8773 36.8645C36.3154 36.4245 36.5618 35.8281 36.5624 35.206V15.5993C36.5618 14.9772 36.3154 14.3808 35.8773 13.9408C35.4392 13.5009 34.8452 13.2534 34.2256 13.2526H14.6949C14.0753 13.2534 13.4813 13.501 13.0433 13.941C12.6052 14.3809 12.3589 14.9774 12.3583 15.5994V35.2062C12.3589 35.8283 12.6052 36.4247 13.0433 36.8647C13.4813 37.3046 14.0753 37.5522 14.6949 37.5531L34.2256 37.5527Z" fill="#D2D2D2"/>
<path id="Path 26" d="M8.13656 0H23.2829C24.8198 0.00152903 26.2934 0.615102 27.3802 1.70609C28.467 2.79707 29.0783 4.27636 29.08 5.81934V6.34127C29.08 6.66571 28.9517 6.97686 28.7231 7.20628C28.4946 7.43569 28.1847 7.56458 27.8615 7.56458C27.5384 7.56458 27.2285 7.43569 26.9999 7.20628C26.7714 6.97686 26.6431 6.66571 26.6431 6.34127V5.81934C26.6419 4.92519 26.2875 4.06803 25.6576 3.43585C25.0278 2.80367 24.1739 2.44809 23.2833 2.4471H8.13689C6.62606 2.44899 5.17765 3.05238 4.10933 4.12492C3.04102 5.19747 2.44002 6.6516 2.43813 8.16841V23.3757C2.43925 24.2697 2.79349 25.1268 3.42317 25.759C4.05285 26.3912 4.90656 26.7468 5.79706 26.7479C6.12022 26.7479 6.43015 26.8768 6.65866 27.1062C6.88717 27.3356 7.01555 27.6468 7.01555 27.9712C7.01555 28.2957 6.88717 28.6068 6.65866 28.8362C6.43015 29.0657 6.12022 29.1945 5.79706 29.1945C4.26028 29.1928 2.78695 28.5791 1.70026 27.4882C0.613572 26.3972 0.00227993 24.9181 0.000488281 23.3752V8.16858C0.00286221 6.00293 0.860812 3.92665 2.3861 2.39527C3.91138 0.863891 5.97944 0.00247341 8.13656 0Z" fill="#D2D2D2"/>
</g>
<defs>
<clipPath id="clip0_6_76">
<rect width="39" height="40" fill="white"/>
</clipPath>
</defs>
</svg>
