<svg width="40" height="40" viewBox="0 0 40 40" fill="none" xmlns="http://www.w3.org/2000/svg">
<g clip-path="url(#clip0_101_10)">
<circle cx="20" cy="20" r="17" fill="black"/>
<path d="M20 0C16.0444 0 12.1776 1.17298 8.8886 3.37061C5.59962 5.56823 3.03617 8.69181 1.52242 12.3463C0.00866568 16.0008 -0.387401 20.0222 0.384303 23.9018C1.15601 27.7814 3.06082 31.3451 5.85787 34.1421C8.65492 36.9392 12.2186 38.844 16.0982 39.6157C19.9778 40.3874 23.9992 39.9913 27.6537 38.4776C31.3082 36.9638 34.4318 34.4004 36.6294 31.1114C38.827 27.8224 40 23.9556 40 20C40 17.3736 39.4827 14.7728 38.4776 12.3463C37.4725 9.91982 35.9993 7.71503 34.1421 5.85786C32.285 4.00069 30.0802 2.5275 27.6537 1.52241C25.2272 0.517315 22.6264 0 20 0ZM28 22H12C11.4696 22 10.9609 21.7893 10.5858 21.4142C10.2107 21.0391 10 20.5304 10 20C10 19.4696 10.2107 18.9609 10.5858 18.5858C10.9609 18.2107 11.4696 18 12 18H28C28.5304 18 29.0391 18.2107 29.4142 18.5858C29.7893 18.9609 30 19.4696 30 20C30 20.5304 29.7893 21.0391 29.4142 21.4142C29.0391 21.7893 28.5304 22 28 22Z" fill="white"/>
</g>
<defs>
<clipPath id="clip0_101_10">
<rect width="40" height="40" fill="white"/>
</clipPath>
</defs>
</svg>
