<svg width="40" height="40" viewBox="0 0 40 40" fill="none" xmlns="http://www.w3.org/2000/svg">
<g clip-path="url(#clip0_101_4)">
<circle cx="20" cy="20" r="14" fill="black"/>
<path d="M19.9999 0C8.95456 0 0.000244141 8.95444 0.000244141 19.9998C0.000244141 31.0448 8.95443 40 19.9997 40C31.0449 40 40 31.0448 40 19.9998C40 8.95444 31.045 0 19.9999 0ZM28.4373 22.1999H22.0014V28.929C22.001 30.0574 21.0863 30.9721 19.9577 30.9721C18.8286 30.9721 17.9139 30.0574 17.9139 28.9284V22.1999H11.6493C10.5205 22.1995 9.60629 21.2849 9.60562 20.1562C9.60562 19.0278 10.5207 18.1128 11.6493 18.1125L17.9138 18.1129V12.1408C17.9138 11.012 18.8289 10.0971 19.9573 10.0971C21.0863 10.0971 22.0014 11.0122 22.001 12.1408L22.0014 18.1124L28.4366 18.113C29.5654 18.1124 30.4808 19.0277 30.4804 20.1567C30.4808 21.2855 29.5654 22.1999 28.4373 22.1999Z" fill="white"/>
</g>
<defs>
<clipPath id="clip0_101_4">
<rect width="40" height="40" fill="white"/>
</clipPath>
</defs>
</svg>
